<?xml version="1.0" standalone="no"?>
<!DOCTYPE svg PUBLIC "-//W3C//DTD SVG 20010904//EN"
 "http://www.w3.org/TR/2001/REC-SVG-20010904/DTD/svg10.dtd">
<svg version="1.0" color="white" xmlns="http://www.w3.org/2000/svg"
 width="803.000000pt" height="655.000000pt" viewBox="0 0 803.000000 655.000000"
 preserveAspectRatio="xMidYMid meet">

<g transform="translate(0.000000,655.000000) scale(0.100000,-0.100000)"
fill="#ffffff" stroke="none">
<path d="M1650 5189 c-148 -7 -190 -13 -327 -48 -228 -58 -454 -179 -612 -326
-142 -132 -201 -208 -271 -349 -82 -167 -102 -250 -107 -457 -4 -129 -1 -210
11 -305 26 -204 26 -207 17 -244 -4 -20 -35 -72 -67 -115 -156 -210 -158 -345
-9 -441 67 -42 82 -64 91 -133 5 -37 15 -63 34 -85 15 -17 30 -49 34 -71 8
-40 35 -95 47 -95 3 0 19 -19 35 -42 28 -39 29 -46 29 -152 0 -92 4 -119 21
-157 65 -140 233 -207 453 -180 157 19 352 75 504 145 131 59 323 190 386 262
68 77 78 144 24 165 -40 15 -83 -5 -131 -61 -48 -56 -149 -130 -257 -190 -221
-122 -548 -202 -707 -172 -119 22 -143 58 -144 217 -1 125 -7 144 -69 226 -29
38 -45 69 -45 88 0 15 -11 43 -25 62 -31 42 -39 60 -59 130 -20 70 -41 97
-116 149 -32 23 -61 51 -64 63 -7 29 30 108 93 194 28 39 63 97 78 129 l26 58
-22 206 c-40 382 -26 540 69 735 121 250 336 436 645 558 173 69 250 81 515
81 262 1 332 -10 511 -79 186 -72 393 -235 504 -399 22 -33 52 -68 68 -80 27
-20 28 -20 62 -2 31 17 35 23 35 61 0 36 -10 56 -61 128 -193 271 -485 447
-849 511 -113 20 -177 22 -350 15z"/>
<path d="M1440 4747 l0 -44 -77 -25 -77 -25 -24 28 c-13 16 -31 29 -40 29 -10
0 -37 -18 -62 -39 -49 -43 -48 -35 -8 -101 7 -11 -1 -33 -29 -80 l-40 -64 -45
3 c-44 2 -46 1 -57 -31 -6 -18 -12 -48 -13 -67 -3 -32 0 -35 38 -48 41 -14 41
-15 48 -71 3 -31 8 -66 12 -77 4 -16 -3 -25 -35 -43 -23 -13 -41 -26 -41 -29
0 -9 55 -108 64 -114 4 -4 25 0 46 8 l39 15 56 -48 c42 -37 54 -54 50 -69 -19
-71 -19 -71 27 -94 64 -30 85 -28 105 14 l17 35 78 0 78 0 17 -41 c15 -38 18
-41 48 -36 60 10 107 35 101 54 -20 67 -20 67 44 116 59 46 61 47 90 32 16 -8
36 -15 44 -15 14 0 76 84 76 104 0 6 -14 23 -31 37 l-32 26 15 74 c14 74 14
74 54 85 38 11 39 12 42 62 4 72 -9 92 -61 92 -42 0 -42 1 -76 65 l-34 66 26
36 26 36 -22 26 c-12 15 -34 37 -49 49 l-27 22 -36 -31 -36 -32 -42 21 c-23
11 -54 24 -69 27 -24 6 -27 12 -30 53 l-3 47 -72 3 -73 3 0 -44z m185 -224
c99 -49 155 -138 163 -259 4 -61 1 -80 -21 -127 -13 -30 -42 -73 -63 -96 -57
-63 -104 -84 -204 -89 -81 -4 -88 -2 -150 30 -110 57 -168 165 -158 292 18
215 241 344 433 249z"/>
<path d="M2108 4079 c-67 -10 -71 -15 -65 -69 l6 -48 -56 -41 -55 -42 -44 17
c-24 9 -49 14 -56 11 -19 -7 -61 -95 -54 -112 3 -8 21 -23 41 -32 35 -17 35
-17 35 -82 0 -78 -4 -85 -53 -106 -24 -10 -37 -22 -37 -34 0 -23 35 -106 47
-114 5 -3 30 2 55 11 l47 16 51 -50 c47 -47 50 -52 40 -78 -23 -61 -3 -83 90
-101 l36 -6 13 50 c13 50 14 51 50 51 21 0 53 5 71 11 31 11 34 10 65 -27 l33
-39 34 19 c18 11 44 30 58 43 l24 22 -22 30 c-27 37 -28 61 -4 92 10 13 24 39
31 57 12 29 17 32 57 32 23 0 45 4 48 9 12 19 13 121 2 130 -6 5 -28 11 -49
13 -37 3 -40 6 -59 58 -31 86 -31 88 -9 116 29 36 26 55 -10 84 -17 14 -38 31
-46 39 -13 12 -19 9 -50 -21 l-35 -35 -47 13 c-25 7 -58 16 -73 19 -21 4 -28
11 -28 28 0 34 -11 65 -23 69 -7 3 -33 1 -59 -3z m182 -229 c71 -36 110 -107
110 -199 0 -97 -48 -169 -137 -206 -98 -41 -223 7 -273 106 -29 55 -27 161 3
214 25 45 89 93 138 105 45 11 115 2 159 -20z"/>
<path d="M5185 3536 c-111 -38 -135 -96 -45 -111 45 -8 55 -20 64 -86 11 -74
8 -971 -3 -1000 -6 -17 -24 -32 -51 -43 -36 -14 -41 -20 -38 -44 3 -23 10 -29
53 -40 61 -16 230 -10 272 10 46 22 41 49 -14 78 -44 23 -49 29 -55 70 -4 25
-7 298 -6 606 0 309 -2 567 -6 573 -12 18 -97 12 -171 -13z"/>
<path d="M6680 3554 c-8 -3 -39 -12 -68 -22 -101 -32 -120 -90 -37 -111 28 -7
49 -19 57 -34 14 -25 25 -863 13 -991 l-6 -72 -47 -24 c-56 -30 -62 -57 -17
-80 46 -23 258 -21 303 3 44 24 39 46 -16 73 -24 11 -48 27 -53 35 -5 8 -9 87
-9 177 0 135 2 162 15 162 17 0 86 -80 244 -284 63 -81 130 -156 149 -168 29
-18 45 -20 128 -16 80 3 98 7 116 25 29 29 13 47 -55 63 -46 11 -62 23 -137
99 -47 47 -114 122 -148 166 -35 44 -69 87 -75 95 -7 8 -28 36 -46 62 l-34 48
28 40 c62 89 223 214 316 245 81 27 91 65 22 84 -50 14 -226 13 -283 -2 -35
-9 -46 -17 -48 -34 -3 -18 5 -27 32 -40 20 -9 36 -24 36 -33 0 -20 -55 -85
-140 -167 -70 -67 -106 -91 -117 -79 -5 4 -8 182 -8 394 l0 387 -50 2 c-27 1
-57 0 -65 -3z"/>
<path d="M3728 3258 c-83 -77 -158 -175 -158 -208 0 -22 5 -30 18 -31 31 -1
74 -8 79 -12 2 -3 4 -130 4 -283 -1 -414 11 -477 99 -521 75 -38 183 -24 248
31 70 61 39 125 -38 81 -33 -19 -90 -19 -117 0 -36 26 -44 97 -41 405 l3 285
97 5 c53 3 102 10 108 16 6 6 10 27 8 45 l-3 34 -105 5 -105 5 -3 93 c-3 88
-4 92 -25 92 -13 0 -43 -19 -69 -42z"/>
<path d="M7570 3213 c-87 -92 -120 -137 -120 -165 0 -26 17 -33 87 -37 l22 -1
3 -352 c3 -339 4 -355 24 -393 14 -25 38 -49 64 -64 59 -33 155 -27 220 14 54
34 69 52 70 83 0 31 -23 37 -70 18 -74 -29 -122 -20 -148 28 -15 27 -17 72
-20 340 -2 187 0 312 6 318 5 5 47 10 93 10 119 2 121 3 117 52 l-3 41 -105 5
-105 5 -3 93 c-3 89 -3 92 -26 92 -17 0 -48 -26 -106 -87z"/>
<path d="M2586 3125 c-76 -31 -115 -68 -100 -93 6 -9 32 -23 58 -30 36 -10 47
-19 53 -40 5 -15 8 -160 8 -323 0 -328 2 -318 -67 -346 -30 -12 -38 -20 -36
-37 5 -37 52 -50 178 -51 118 0 173 12 184 42 9 22 -1 32 -46 50 -24 10 -43
25 -49 40 -15 41 -11 488 5 526 19 45 92 112 148 137 84 37 204 25 254 -24 22
-22 42 -71 54 -131 13 -65 10 -487 -3 -515 -4 -9 -27 -25 -50 -35 -51 -24 -56
-53 -12 -74 41 -20 247 -21 293 -2 45 19 45 57 -1 76 -62 26 -61 24 -68 314
-4 169 -11 281 -19 306 -53 169 -158 243 -329 233 -98 -6 -164 -39 -224 -114
-47 -59 -57 -64 -57 -31 -2 69 -12 132 -23 139 -23 15 -93 7 -151 -17z"/>
<path d="M4497 3140 c-21 -6 -62 -21 -91 -35 -232 -110 -332 -427 -211 -670
40 -80 60 -105 134 -163 127 -101 351 -111 506 -22 124 71 203 210 120 210
-18 0 -44 -17 -83 -54 -31 -29 -77 -64 -102 -76 -62 -32 -170 -38 -240 -15
-106 35 -196 159 -209 289 -8 78 -5 93 22 100 12 3 158 6 323 6 258 0 303 2
314 15 19 23 7 170 -18 226 -32 71 -86 125 -160 160 -59 29 -78 33 -167 35
-55 2 -117 -1 -138 -6z m184 -92 c87 -30 150 -113 153 -201 l1 -52 -259 -3
-259 -2 6 38 c2 22 12 55 21 74 23 48 93 117 141 139 46 21 144 25 196 7z"/>
<path d="M5908 3131 c-202 -66 -328 -251 -328 -478 0 -187 100 -352 257 -426
65 -31 73 -32 193 -32 121 0 127 1 194 33 127 60 231 175 196 217 -22 27 -52
16 -110 -39 -80 -76 -128 -99 -225 -104 -68 -4 -89 -1 -132 18 -69 29 -144
109 -171 181 -27 74 -39 174 -22 194 11 13 59 15 330 15 l317 0 13 25 c9 17
11 45 6 97 -13 140 -94 250 -216 294 -71 25 -232 28 -302 5z m224 -90 c85 -38
137 -115 138 -203 l0 -48 -255 0 -255 0 0 35 c0 73 73 174 155 211 64 30 155
32 217 5z"/>
<path d="M2185 3120 c-69 -14 -154 -50 -170 -73 -19 -28 -5 -44 50 -58 29 -7
46 -18 51 -32 11 -32 17 -587 7 -628 -7 -27 -17 -38 -51 -54 -31 -15 -42 -25
-42 -42 0 -34 38 -45 160 -46 158 -1 227 31 157 73 -17 11 -37 20 -43 20 -30
0 -34 54 -34 440 0 375 -1 390 -19 400 -11 5 -21 10 -23 9 -2 -1 -21 -5 -43
-9z"/>
</g>
</svg>
